<?xml version="1.0" standalone="no"?>
<!DOCTYPE svg PUBLIC "-//W3C//DTD SVG 20010904//EN"
 "http://www.w3.org/TR/2001/REC-SVG-20010904/DTD/svg10.dtd">
<svg version="1.0" xmlns="http://www.w3.org/2000/svg"
 width="100.000000pt" height="100.000000pt" viewBox="0 0 100.000000 100.000000"
 preserveAspectRatio="xMidYMid meet">

<g transform="translate(0.000000,100.000000) scale(0.100000,-0.100000)"
fill="#000000" stroke="none">
<path d="M130 820 c-19 -19 -20 -33 -20 -269 0 -240 -1 -249 -20 -254 -28 -7
-28 -69 0 -97 19 -19 33 -20 400 -20 367 0 381 1 400 20 28 28 28 90 0 97 -19
5 -20 14 -20 254 0 236 -1 250 -20 269 -19 19 -33 20 -360 20 -327 0 -341 -1
-360 -20z m710 -283 l5 -267 -355 0 -355 0 3 257 c1 142 4 264 7 271 3 10 78
12 347 10 l343 -3 5 -268z"/>
<path d="M481 567 c-33 -98 -36 -117 -22 -117 9 0 71 173 71 198 0 6 -4 12 -9
12 -5 0 -23 -42 -40 -93z"/>
<path d="M363 575 c-29 -13 -53 -29 -53 -35 0 -10 70 -45 104 -52 33 -7 15 17
-23 31 -23 8 -41 18 -41 22 0 3 18 13 40 22 22 8 40 20 40 26 0 15 -7 13 -67
-14z"/>
<path d="M550 589 c0 -6 18 -18 40 -26 22 -9 40 -19 40 -22 0 -4 -19 -14 -42
-22 -24 -9 -41 -20 -38 -25 5 -11 18 -8 75 16 25 11 45 24 45 30 0 6 -25 22
-55 36 -63 27 -65 28 -65 13z"/>
</g>
</svg>
